<svg width="879" height="651" viewBox="0 0 879 651" fill="none" xmlns="http://www.w3.org/2000/svg">
<path d="M0 0H575C685.457 0 775 89.543 775 200V651H200C89.543 651 0 561.457 0 451V0Z" fill="url(#paint0_linear_14_2)" fill-opacity="0.7"/>
<path d="M30.9336 235.723C30.9336 232.066 31.5898 228.633 32.9023 225.422C34.2148 222.211 36.0312 219.457 38.3516 217.16C40.6719 214.84 43.4961 213.012 46.8242 211.676C50.1523 210.34 53.7383 209.672 57.582 209.672C63.2539 209.672 68.1523 211.09 72.2773 213.926L68.832 224.719C65.293 222.352 61.6836 221.168 58.0039 221.168C55.7539 221.168 53.7148 221.555 51.8867 222.328C50.082 223.102 48.5938 224.168 47.4219 225.527C46.25 226.863 45.3477 228.41 44.7148 230.168C44.082 231.902 43.7656 233.754 43.7656 235.723C43.7656 238.395 44.293 240.832 45.3477 243.035C46.4258 245.215 48.0664 246.996 50.2695 248.379C52.4727 249.738 55.0508 250.418 58.0039 250.418C61.8711 250.418 65.5508 249.246 69.043 246.902L72.4883 257.695C68.3633 260.531 63.3945 261.949 57.582 261.949C52.2852 261.949 47.5977 260.801 43.5195 258.504C39.4414 256.184 36.3242 253.043 34.168 249.082C32.0117 245.121 30.9336 240.668 30.9336 235.723ZM78.4648 252.352C76.7305 249.328 75.8633 245.941 75.8633 242.191C75.8633 238.441 76.7539 235.043 78.5352 231.996C80.3398 228.926 82.8008 226.535 85.918 224.824C89.0586 223.113 92.5508 222.258 96.3945 222.258C102.465 222.258 107.434 224.121 111.301 227.848C115.191 231.574 117.137 236.309 117.137 242.051C117.137 245.801 116.246 249.199 114.465 252.246C112.684 255.27 110.211 257.648 107.047 259.383C103.883 261.094 100.332 261.949 96.3945 261.949C92.457 261.949 88.918 261.105 85.7773 259.418C82.6367 257.707 80.1992 255.352 78.4648 252.352ZM87.8867 242.191C87.8867 244.91 88.6836 247.125 90.2773 248.836C91.8945 250.523 93.9336 251.367 96.3945 251.367C98.8789 251.367 100.941 250.488 102.582 248.73C104.246 246.973 105.078 244.746 105.078 242.051C105.078 239.309 104.246 237.094 102.582 235.406C100.941 233.695 98.8789 232.84 96.3945 232.84C93.9102 232.84 91.8711 233.707 90.2773 235.441C88.6836 237.176 87.8867 239.426 87.8867 242.191ZM122.094 261V223.207H133.836V227.074C134.586 225.738 135.746 224.602 137.316 223.664C138.91 222.727 140.867 222.258 143.188 222.258C147.594 222.258 150.863 223.91 152.996 227.215C155.598 223.91 159.172 222.258 163.719 222.258C167.938 222.258 171.125 223.488 173.281 225.949C175.461 228.41 176.551 231.715 176.551 235.863V261H164.527V238.465C164.527 236.777 164.117 235.453 163.297 234.492C162.477 233.531 161.352 233.051 159.922 233.051C158.516 233.051 157.391 233.555 156.547 234.562C155.703 235.547 155.281 236.848 155.281 238.465V261H143.258V238.465C143.258 236.777 142.859 235.453 142.062 234.492C141.266 233.531 140.152 233.051 138.723 233.051C137.293 233.051 136.168 233.531 135.348 234.492C134.527 235.43 134.117 236.754 134.117 238.465V261H122.094ZM182.352 214.418C182.352 212.52 182.984 210.961 184.25 209.742C185.516 208.5 187.109 207.879 189.031 207.879C190.953 207.879 192.559 208.5 193.848 209.742C195.16 210.961 195.816 212.52 195.816 214.418C195.816 216.27 195.16 217.816 193.848 219.059C192.559 220.277 190.953 220.887 189.031 220.887C187.109 220.887 185.516 220.277 184.25 219.059C182.984 217.816 182.352 216.27 182.352 214.418ZM183.125 261V223.207H195.148V261H183.125ZM199.402 232.91V223.207H203.059V215.191H215.082V223.207H221.48V232.91H215.082V246.832C215.082 249.551 216.641 250.91 219.758 250.91C220.555 250.91 221.223 250.887 221.762 250.84V261.141C220.707 261.422 219.172 261.562 217.156 261.562C212.516 261.562 209 260.367 206.609 257.977C204.242 255.562 203.059 251.648 203.059 246.234V232.91H199.402ZM225.488 242.191C225.488 238.512 226.25 235.16 227.773 232.137C229.32 229.113 231.512 226.711 234.348 224.93C237.207 223.148 240.441 222.258 244.051 222.258C250.027 222.258 254.621 224.074 257.832 227.707C261.043 231.316 262.648 236.367 262.648 242.859C262.648 243.844 262.625 244.629 262.578 245.215H237.793C237.934 246.949 238.754 248.438 240.254 249.68C241.777 250.898 243.629 251.508 245.809 251.508C247.777 251.508 249.441 251.062 250.801 250.172C252.184 249.258 253.156 248.355 253.719 247.465L261.629 253.582C261.301 254.262 260.75 255.023 259.977 255.867C259.227 256.688 258.207 257.59 256.918 258.574C255.652 259.535 254.012 260.344 251.996 261C250.004 261.633 247.859 261.949 245.562 261.949C241.508 261.949 237.945 261.082 234.875 259.348C231.805 257.59 229.473 255.223 227.879 252.246C226.285 249.27 225.488 245.918 225.488 242.191ZM231.535 219.234L238.461 208.793H250.555L257.445 219.234H247.531L244.578 214.559L241.555 219.234H231.535ZM238.18 237.586H250.414C250.344 236.016 249.758 234.691 248.656 233.613C247.555 232.535 246.102 231.996 244.297 231.996C242.445 231.996 241.004 232.559 239.973 233.684C238.941 234.785 238.344 236.086 238.18 237.586ZM282.582 261V210.586H300.723C305.809 210.586 309.793 212.051 312.676 214.98C315.559 217.887 317 221.848 317 226.863C317 231.785 315.512 235.77 312.535 238.816C309.582 241.84 305.668 243.352 300.793 243.352H294.887V261H282.582ZM294.887 232.77H298.93C300.688 232.77 302.035 232.23 302.973 231.152C303.934 230.074 304.414 228.645 304.414 226.863C304.414 225.152 303.934 223.781 302.973 222.75C302.035 221.695 300.734 221.168 299.07 221.168H294.887V232.77ZM319.918 242.191C319.918 238.512 320.68 235.16 322.203 232.137C323.75 229.113 325.941 226.711 328.777 224.93C331.637 223.148 334.871 222.258 338.48 222.258C344.457 222.258 349.051 224.074 352.262 227.707C355.473 231.316 357.078 236.367 357.078 242.859C357.078 243.844 357.055 244.629 357.008 245.215H332.223C332.363 246.949 333.184 248.438 334.684 249.68C336.207 250.898 338.059 251.508 340.238 251.508C342.207 251.508 343.871 251.062 345.23 250.172C346.613 249.258 347.586 248.355 348.148 247.465L356.059 253.582C355.73 254.262 355.18 255.023 354.406 255.867C353.656 256.688 352.637 257.59 351.348 258.574C350.082 259.535 348.441 260.344 346.426 261C344.434 261.633 342.289 261.949 339.992 261.949C335.938 261.949 332.375 261.082 329.305 259.348C326.234 257.59 323.902 255.223 322.309 252.246C320.715 249.27 319.918 245.918 319.918 242.191ZM332.609 237.586H344.844C344.773 236.016 344.188 234.691 343.086 233.613C341.984 232.535 340.531 231.996 338.727 231.996C336.875 231.996 335.434 232.559 334.402 233.684C333.371 234.785 332.773 236.086 332.609 237.586ZM361.859 261V223.207H373.602V228.234C374.516 226.359 375.84 224.895 377.574 223.84C379.309 222.785 381.324 222.258 383.621 222.258V234.492C382.965 234.398 382.32 234.352 381.688 234.352C376.484 234.352 373.883 237.668 373.883 244.301V261H361.859ZM388.438 261V223.207H400.18V227.074C400.93 225.738 402.09 224.602 403.66 223.664C405.254 222.727 407.211 222.258 409.531 222.258C413.938 222.258 417.207 223.91 419.34 227.215C421.941 223.91 425.516 222.258 430.062 222.258C434.281 222.258 437.469 223.488 439.625 225.949C441.805 228.41 442.895 231.715 442.895 235.863V261H430.871V238.465C430.871 236.777 430.461 235.453 429.641 234.492C428.82 233.531 427.695 233.051 426.266 233.051C424.859 233.051 423.734 233.555 422.891 234.562C422.047 235.547 421.625 236.848 421.625 238.465V261H409.602V238.465C409.602 236.777 409.203 235.453 408.406 234.492C407.609 233.531 406.496 233.051 405.066 233.051C403.637 233.051 402.512 233.531 401.691 234.492C400.871 235.43 400.461 236.754 400.461 238.465V261H388.438ZM447.465 249.258C447.465 245.484 448.801 242.461 451.473 240.188C454.145 237.891 457.707 236.742 462.16 236.742C464.785 236.742 467.211 237.199 469.438 238.113V236.742C469.438 235.523 468.945 234.539 467.961 233.789C466.977 233.016 465.547 232.629 463.672 232.629C460.578 232.629 457.402 233.426 454.145 235.02L449.68 226.934C454.391 223.816 459.535 222.258 465.113 222.258C468.277 222.258 470.949 222.645 473.129 223.418C475.332 224.168 477.02 225.27 478.191 226.723C479.387 228.176 480.23 229.781 480.723 231.539C481.215 233.273 481.461 235.289 481.461 237.586V261H470.703L470.07 258.926C468.055 260.941 465.195 261.949 461.492 261.949C458.961 261.949 456.652 261.48 454.566 260.543C452.48 259.582 450.77 258.117 449.434 256.148C448.121 254.18 447.465 251.883 447.465 249.258ZM460.895 245.918C459.957 246.645 459.488 247.617 459.488 248.836C459.488 250.055 459.969 251.004 460.93 251.684C461.891 252.363 463.109 252.703 464.586 252.703C466.086 252.703 467.305 252.363 468.242 251.684C469.18 251.004 469.648 250.055 469.648 248.836C469.648 247.57 469.168 246.586 468.207 245.883C467.246 245.156 466.016 244.793 464.516 244.793C463.062 244.793 461.855 245.168 460.895 245.918ZM487.93 261V223.207H499.672V227.074C500.516 225.785 501.758 224.66 503.398 223.699C505.062 222.738 506.984 222.258 509.164 222.258C510.805 222.258 512.281 222.457 513.594 222.855C514.906 223.254 516.008 223.781 516.898 224.438C517.789 225.07 518.562 225.879 519.219 226.863C519.875 227.848 520.379 228.832 520.73 229.816C521.105 230.777 521.398 231.902 521.609 233.191C521.844 234.457 521.984 235.605 522.031 236.637C522.102 237.645 522.137 238.781 522.137 240.047V261H510.113V238.465C510.113 236.754 509.656 235.43 508.742 234.492C507.828 233.531 506.633 233.051 505.156 233.051C503.539 233.051 502.262 233.566 501.324 234.598C500.41 235.605 499.953 236.895 499.953 238.465V261H487.93ZM526.918 242.191C526.918 238.512 527.68 235.16 529.203 232.137C530.75 229.113 532.941 226.711 535.777 224.93C538.637 223.148 541.871 222.258 545.48 222.258C551.457 222.258 556.051 224.074 559.262 227.707C562.473 231.316 564.078 236.367 564.078 242.859C564.078 243.844 564.055 244.629 564.008 245.215H539.223C539.363 246.949 540.184 248.438 541.684 249.68C543.207 250.898 545.059 251.508 547.238 251.508C549.207 251.508 550.871 251.062 552.23 250.172C553.613 249.258 554.586 248.355 555.148 247.465L563.059 253.582C562.73 254.262 562.18 255.023 561.406 255.867C560.656 256.688 559.637 257.59 558.348 258.574C557.082 259.535 555.441 260.344 553.426 261C551.434 261.633 549.289 261.949 546.992 261.949C542.938 261.949 539.375 261.082 536.305 259.348C533.234 257.59 530.902 255.223 529.309 252.246C527.715 249.27 526.918 245.918 526.918 242.191ZM539.609 237.586H551.844C551.773 236.016 551.188 234.691 550.086 233.613C548.984 232.535 547.531 231.996 545.727 231.996C543.875 231.996 542.434 232.559 541.402 233.684C540.371 234.785 539.773 236.086 539.609 237.586ZM568.859 261V223.207H580.602V227.074C581.445 225.785 582.688 224.66 584.328 223.699C585.992 222.738 587.914 222.258 590.094 222.258C591.734 222.258 593.211 222.457 594.523 222.855C595.836 223.254 596.938 223.781 597.828 224.438C598.719 225.07 599.492 225.879 600.148 226.863C600.805 227.848 601.309 228.832 601.66 229.816C602.035 230.777 602.328 231.902 602.539 233.191C602.773 234.457 602.914 235.605 602.961 236.637C603.031 237.645 603.066 238.781 603.066 240.047V261H591.043V238.465C591.043 236.754 590.586 235.43 589.672 234.492C588.758 233.531 587.562 233.051 586.086 233.051C584.469 233.051 583.191 233.566 582.254 234.598C581.34 235.605 580.883 236.895 580.883 238.465V261H568.859ZM607.074 232.91V223.207H610.73V215.191H622.754V223.207H629.152V232.91H622.754V246.832C622.754 249.551 624.312 250.91 627.43 250.91C628.227 250.91 628.895 250.887 629.434 250.84V261.141C628.379 261.422 626.844 261.562 624.828 261.562C620.188 261.562 616.672 260.367 614.281 257.977C611.914 255.562 610.73 251.648 610.73 246.234V232.91H607.074ZM633.16 242.191C633.16 238.512 633.922 235.16 635.445 232.137C636.992 229.113 639.184 226.711 642.02 224.93C644.879 223.148 648.113 222.258 651.723 222.258C657.699 222.258 662.293 224.074 665.504 227.707C668.715 231.316 670.32 236.367 670.32 242.859C670.32 243.844 670.297 244.629 670.25 245.215H645.465C645.605 246.949 646.426 248.438 647.926 249.68C649.449 250.898 651.301 251.508 653.48 251.508C655.449 251.508 657.113 251.062 658.473 250.172C659.855 249.258 660.828 248.355 661.391 247.465L669.301 253.582C668.973 254.262 668.422 255.023 667.648 255.867C666.898 256.688 665.879 257.59 664.59 258.574C663.324 259.535 661.684 260.344 659.668 261C657.676 261.633 655.531 261.949 653.234 261.949C649.18 261.949 645.617 261.082 642.547 259.348C639.477 257.59 637.145 255.223 635.551 252.246C633.957 249.27 633.16 245.918 633.16 242.191ZM645.852 237.586H658.086C658.016 236.016 657.43 234.691 656.328 233.613C655.227 232.535 653.773 231.996 651.969 231.996C650.117 231.996 648.676 232.559 647.645 233.684C646.613 234.785 646.016 236.086 645.852 237.586ZM30.582 322.121C30.582 316.191 32.1992 311.398 35.4336 307.742C38.6914 304.086 43.0273 302.258 48.4414 302.258C50.9258 302.258 53.0586 302.703 54.8398 303.594C56.6211 304.461 57.8516 305.293 58.5312 306.09V288.934H70.5547V341H59.3047V338.047C58.5078 338.938 57.207 339.816 55.4023 340.684C53.6211 341.527 51.5117 341.949 49.0742 341.949C43.6367 341.949 39.1953 340.098 35.75 336.395C32.3047 332.691 30.582 327.934 30.582 322.121ZM44.8203 315.441C43.3438 317.152 42.6055 319.402 42.6055 322.191C42.6055 324.98 43.3555 327.219 44.8555 328.906C46.3555 330.594 48.3125 331.438 50.7266 331.438C53.2344 331.438 55.2148 330.559 56.668 328.801C58.1445 327.02 58.8828 324.816 58.8828 322.191C58.8828 319.262 58.1328 316.977 56.6328 315.336C55.1328 313.672 53.1641 312.84 50.7266 312.84C48.2891 312.84 46.3203 313.707 44.8203 315.441ZM75.582 322.191C75.582 318.512 76.3438 315.16 77.8672 312.137C79.4141 309.113 81.6055 306.711 84.4414 304.93C87.3008 303.148 90.5352 302.258 94.1445 302.258C100.121 302.258 104.715 304.074 107.926 307.707C111.137 311.316 112.742 316.367 112.742 322.859C112.742 323.844 112.719 324.629 112.672 325.215H87.8867C88.0273 326.949 88.8477 328.438 90.3477 329.68C91.8711 330.898 93.7227 331.508 95.9023 331.508C97.8711 331.508 99.5352 331.062 100.895 330.172C102.277 329.258 103.25 328.355 103.812 327.465L111.723 333.582C111.395 334.262 110.844 335.023 110.07 335.867C109.32 336.688 108.301 337.59 107.012 338.574C105.746 339.535 104.105 340.344 102.09 341C100.098 341.633 97.9531 341.949 95.6562 341.949C91.6016 341.949 88.0391 341.082 84.9688 339.348C81.8984 337.59 79.5664 335.223 77.9727 332.246C76.3789 329.27 75.582 325.918 75.582 322.191ZM88.2734 317.586H100.508C100.438 316.016 99.8516 314.691 98.75 313.613C97.6484 312.535 96.1953 311.996 94.3906 311.996C92.5391 311.996 91.0977 312.559 90.0664 313.684C89.0352 314.785 88.4375 316.086 88.2734 317.586ZM132.676 341V290.586H159.535V301.625H144.98V310.027H157.355V320.996H144.98V329.996H160.098V341H132.676ZM166.602 341V303.207H178.344V307.074C179.188 305.785 180.43 304.66 182.07 303.699C183.734 302.738 185.656 302.258 187.836 302.258C189.477 302.258 190.953 302.457 192.266 302.855C193.578 303.254 194.68 303.781 195.57 304.438C196.461 305.07 197.234 305.879 197.891 306.863C198.547 307.848 199.051 308.832 199.402 309.816C199.777 310.777 200.07 311.902 200.281 313.191C200.516 314.457 200.656 315.605 200.703 316.637C200.773 317.645 200.809 318.781 200.809 320.047V341H188.785V318.465C188.785 316.754 188.328 315.43 187.414 314.492C186.5 313.531 185.305 313.051 183.828 313.051C182.211 313.051 180.934 313.566 179.996 314.598C179.082 315.605 178.625 316.895 178.625 318.465V341H166.602ZM205.449 312.91V303.207H209.422V302.117C209.422 300.195 209.691 298.473 210.23 296.949C210.77 295.402 211.496 294.125 212.41 293.117C213.324 292.109 214.426 291.277 215.715 290.621C217.004 289.965 218.363 289.496 219.793 289.215C221.223 288.934 222.758 288.793 224.398 288.793C225.008 288.793 226.227 288.84 228.055 288.934V299.023C227.492 298.93 226.848 298.883 226.121 298.883C223.004 298.883 221.445 300.055 221.445 302.398V303.207H227.352V312.91H221.445V341H209.422V312.91H205.449ZM232.062 341V303.207H243.805V308.234C244.719 306.359 246.043 304.895 247.777 303.84C249.512 302.785 251.527 302.258 253.824 302.258V314.492C253.168 314.398 252.523 314.352 251.891 314.352C246.688 314.352 244.086 317.668 244.086 324.301V341H232.062ZM255.301 322.191C255.301 318.512 256.062 315.16 257.586 312.137C259.133 309.113 261.324 306.711 264.16 304.93C267.02 303.148 270.254 302.258 273.863 302.258C279.84 302.258 284.434 304.074 287.645 307.707C290.855 311.316 292.461 316.367 292.461 322.859C292.461 323.844 292.438 324.629 292.391 325.215H267.605C267.746 326.949 268.566 328.438 270.066 329.68C271.59 330.898 273.441 331.508 275.621 331.508C277.59 331.508 279.254 331.062 280.613 330.172C281.996 329.258 282.969 328.355 283.531 327.465L291.441 333.582C291.113 334.262 290.562 335.023 289.789 335.867C289.039 336.688 288.02 337.59 286.73 338.574C285.465 339.535 283.824 340.344 281.809 341C279.816 341.633 277.672 341.949 275.375 341.949C271.32 341.949 267.758 341.082 264.688 339.348C261.617 337.59 259.285 335.223 257.691 332.246C256.098 329.27 255.301 325.918 255.301 322.191ZM267.992 317.586H280.227C280.156 316.016 279.57 314.691 278.469 313.613C277.367 312.535 275.914 311.996 274.109 311.996C272.258 311.996 270.816 312.559 269.785 313.684C268.754 314.785 268.156 316.086 267.992 317.586ZM297.242 341V303.207H308.984V307.074C309.828 305.785 311.07 304.66 312.711 303.699C314.375 302.738 316.297 302.258 318.477 302.258C320.117 302.258 321.594 302.457 322.906 302.855C324.219 303.254 325.32 303.781 326.211 304.438C327.102 305.07 327.875 305.879 328.531 306.863C329.188 307.848 329.691 308.832 330.043 309.816C330.418 310.777 330.711 311.902 330.922 313.191C331.156 314.457 331.297 315.605 331.344 316.637C331.414 317.645 331.449 318.781 331.449 320.047V341H319.426V318.465C319.426 316.754 318.969 315.43 318.055 314.492C317.141 313.531 315.945 313.051 314.469 313.051C312.852 313.051 311.574 313.566 310.637 314.598C309.723 315.605 309.266 316.895 309.266 318.465V341H297.242ZM335.457 312.91V303.207H339.113V295.191H351.137V303.207H357.535V312.91H351.137V326.832C351.137 329.551 352.695 330.91 355.812 330.91C356.609 330.91 357.277 330.887 357.816 330.84V341.141C356.762 341.422 355.227 341.562 353.211 341.562C348.57 341.562 345.055 340.367 342.664 337.977C340.297 335.562 339.113 331.648 339.113 326.234V312.91H335.457ZM361.402 329.258C361.402 325.484 362.738 322.461 365.41 320.188C368.082 317.891 371.645 316.742 376.098 316.742C378.723 316.742 381.148 317.199 383.375 318.113V316.742C383.375 315.523 382.883 314.539 381.898 313.789C380.914 313.016 379.484 312.629 377.609 312.629C374.516 312.629 371.34 313.426 368.082 315.02L363.617 306.934C368.328 303.816 373.473 302.258 379.051 302.258C382.215 302.258 384.887 302.645 387.066 303.418C389.27 304.168 390.957 305.27 392.129 306.723C393.324 308.176 394.168 309.781 394.66 311.539C395.152 313.273 395.398 315.289 395.398 317.586V341H384.641L384.008 338.926C381.992 340.941 379.133 341.949 375.43 341.949C372.898 341.949 370.59 341.48 368.504 340.543C366.418 339.582 364.707 338.117 363.371 336.148C362.059 334.18 361.402 331.883 361.402 329.258ZM374.832 325.918C373.895 326.645 373.426 327.617 373.426 328.836C373.426 330.055 373.906 331.004 374.867 331.684C375.828 332.363 377.047 332.703 378.523 332.703C380.023 332.703 381.242 332.363 382.18 331.684C383.117 331.004 383.586 330.055 383.586 328.836C383.586 327.57 383.105 326.586 382.145 325.883C381.184 325.156 379.953 324.793 378.453 324.793C377 324.793 375.793 325.168 374.832 325.918ZM401.867 341V303.207H413.609V307.074C414.359 305.738 415.52 304.602 417.09 303.664C418.684 302.727 420.641 302.258 422.961 302.258C427.367 302.258 430.637 303.91 432.77 307.215C435.371 303.91 438.945 302.258 443.492 302.258C447.711 302.258 450.898 303.488 453.055 305.949C455.234 308.41 456.324 311.715 456.324 315.863V341H444.301V318.465C444.301 316.777 443.891 315.453 443.07 314.492C442.25 313.531 441.125 313.051 439.695 313.051C438.289 313.051 437.164 313.555 436.32 314.562C435.477 315.547 435.055 316.848 435.055 318.465V341H423.031V318.465C423.031 316.777 422.633 315.453 421.836 314.492C421.039 313.531 419.926 313.051 418.496 313.051C417.066 313.051 415.941 313.531 415.121 314.492C414.301 315.43 413.891 316.754 413.891 318.465V341H401.867ZM461.035 322.191C461.035 318.512 461.797 315.16 463.32 312.137C464.867 309.113 467.059 306.711 469.895 304.93C472.754 303.148 475.988 302.258 479.598 302.258C485.574 302.258 490.168 304.074 493.379 307.707C496.59 311.316 498.195 316.367 498.195 322.859C498.195 323.844 498.172 324.629 498.125 325.215H473.34C473.48 326.949 474.301 328.438 475.801 329.68C477.324 330.898 479.176 331.508 481.355 331.508C483.324 331.508 484.988 331.062 486.348 330.172C487.73 329.258 488.703 328.355 489.266 327.465L497.176 333.582C496.848 334.262 496.297 335.023 495.523 335.867C494.773 336.688 493.754 337.59 492.465 338.574C491.199 339.535 489.559 340.344 487.543 341C485.551 341.633 483.406 341.949 481.109 341.949C477.055 341.949 473.492 341.082 470.422 339.348C467.352 337.59 465.02 335.223 463.426 332.246C461.832 329.27 461.035 325.918 461.035 322.191ZM473.727 317.586H485.961C485.891 316.016 485.305 314.691 484.203 313.613C483.102 312.535 481.648 311.996 479.844 311.996C477.992 311.996 476.551 312.559 475.52 313.684C474.488 314.785 473.891 316.086 473.727 317.586ZM502.977 341V303.207H514.719V307.074C515.562 305.785 516.805 304.66 518.445 303.699C520.109 302.738 522.031 302.258 524.211 302.258C525.852 302.258 527.328 302.457 528.641 302.855C529.953 303.254 531.055 303.781 531.945 304.438C532.836 305.07 533.609 305.879 534.266 306.863C534.922 307.848 535.426 308.832 535.777 309.816C536.152 310.777 536.445 311.902 536.656 313.191C536.891 314.457 537.031 315.605 537.078 316.637C537.148 317.645 537.184 318.781 537.184 320.047V341H525.16V318.465C525.16 316.754 524.703 315.43 523.789 314.492C522.875 313.531 521.68 313.051 520.203 313.051C518.586 313.051 517.309 313.566 516.371 314.598C515.457 315.605 515 316.895 515 318.465V341H502.977ZM541.191 312.91V303.207H544.848V295.191H556.871V303.207H563.27V312.91H556.871V326.832C556.871 329.551 558.43 330.91 561.547 330.91C562.344 330.91 563.012 330.887 563.551 330.84V341.141C562.496 341.422 560.961 341.562 558.945 341.562C554.305 341.562 550.789 340.367 548.398 337.977C546.031 335.562 544.848 331.648 544.848 326.234V312.91H541.191ZM569.809 332.352C568.074 329.328 567.207 325.941 567.207 322.191C567.207 318.441 568.098 315.043 569.879 311.996C571.684 308.926 574.145 306.535 577.262 304.824C580.402 303.113 583.895 302.258 587.738 302.258C593.809 302.258 598.777 304.121 602.645 307.848C606.535 311.574 608.48 316.309 608.48 322.051C608.48 325.801 607.59 329.199 605.809 332.246C604.027 335.27 601.555 337.648 598.391 339.383C595.227 341.094 591.676 341.949 587.738 341.949C583.801 341.949 580.262 341.105 577.121 339.418C573.98 337.707 571.543 335.352 569.809 332.352ZM579.23 322.191C579.23 324.91 580.027 327.125 581.621 328.836C583.238 330.523 585.277 331.367 587.738 331.367C590.223 331.367 592.285 330.488 593.926 328.73C595.59 326.973 596.422 324.746 596.422 322.051C596.422 319.309 595.59 317.094 593.926 315.406C592.285 313.695 590.223 312.84 587.738 312.84C585.254 312.84 583.215 313.707 581.621 315.441C580.027 317.176 579.23 319.426 579.23 322.191ZM625.566 329.258C625.566 325.484 626.902 322.461 629.574 320.188C632.246 317.891 635.809 316.742 640.262 316.742C642.887 316.742 645.312 317.199 647.539 318.113V316.742C647.539 315.523 647.047 314.539 646.062 313.789C645.078 313.016 643.648 312.629 641.773 312.629C638.68 312.629 635.504 313.426 632.246 315.02L627.781 306.934C632.492 303.816 637.637 302.258 643.215 302.258C646.379 302.258 649.051 302.645 651.23 303.418C653.434 304.168 655.121 305.27 656.293 306.723C657.488 308.176 658.332 309.781 658.824 311.539C659.316 313.273 659.562 315.289 659.562 317.586V341H648.805L648.172 338.926C646.156 340.941 643.297 341.949 639.594 341.949C637.062 341.949 634.754 341.48 632.668 340.543C630.582 339.582 628.871 338.117 627.535 336.148C626.223 334.18 625.566 331.883 625.566 329.258ZM638.996 325.918C638.059 326.645 637.59 327.617 637.59 328.836C637.59 330.055 638.07 331.004 639.031 331.684C639.992 332.363 641.211 332.703 642.688 332.703C644.188 332.703 645.406 332.363 646.344 331.684C647.281 331.004 647.75 330.055 647.75 328.836C647.75 327.57 647.27 326.586 646.309 325.883C645.348 325.156 644.117 324.793 642.617 324.793C641.164 324.793 639.957 325.168 638.996 325.918ZM666.699 332.352C664.965 329.328 664.098 325.941 664.098 322.191C664.098 318.441 664.988 315.043 666.77 311.996C668.574 308.926 671.035 306.535 674.152 304.824C677.293 303.113 680.785 302.258 684.629 302.258C690.699 302.258 695.668 304.121 699.535 307.848C703.426 311.574 705.371 316.309 705.371 322.051C705.371 325.801 704.48 329.199 702.699 332.246C700.918 335.27 698.445 337.648 695.281 339.383C692.117 341.094 688.566 341.949 684.629 341.949C680.691 341.949 677.152 341.105 674.012 339.418C670.871 337.707 668.434 335.352 666.699 332.352ZM676.121 322.191C676.121 324.91 676.918 327.125 678.512 328.836C680.129 330.523 682.168 331.367 684.629 331.367C687.113 331.367 689.176 330.488 690.816 328.73C692.48 326.973 693.312 324.746 693.312 322.051C693.312 319.309 692.48 317.094 690.816 315.406C689.176 313.695 687.113 312.84 684.629 312.84C682.145 312.84 680.105 313.707 678.512 315.441C676.918 317.176 676.121 319.426 676.121 322.191ZM707.902 335.445L714.652 328.906C717.113 331.109 719.902 332.211 723.02 332.211C725.27 332.211 726.395 331.52 726.395 330.137C726.395 329.574 726.078 329.07 725.445 328.625C724.812 328.18 723.98 327.781 722.949 327.43C721.941 327.078 720.816 326.703 719.574 326.305C718.355 325.883 717.125 325.355 715.883 324.723C714.664 324.066 713.539 323.305 712.508 322.438C711.5 321.547 710.68 320.375 710.047 318.922C709.414 317.469 709.098 315.805 709.098 313.93C709.098 310.367 710.469 307.531 713.211 305.422C715.977 303.312 719.457 302.258 723.652 302.258C729.512 302.258 734.023 304.414 737.188 308.727L729.418 314.879C727.449 312.91 725.363 311.926 723.16 311.926C722.293 311.926 721.613 312.09 721.121 312.418C720.652 312.746 720.418 313.203 720.418 313.789C720.418 314.422 720.734 314.973 721.367 315.441C722.023 315.887 722.855 316.273 723.863 316.602C724.895 316.93 726.031 317.281 727.273 317.656C728.516 318.008 729.758 318.477 731 319.062C732.242 319.648 733.367 320.363 734.375 321.207C735.406 322.027 736.238 323.152 736.871 324.582C737.527 325.988 737.855 327.617 737.855 329.469C737.855 333.242 736.391 336.266 733.461 338.539C730.531 340.812 726.852 341.949 722.422 341.949C719.117 341.949 716.188 341.305 713.633 340.016C711.102 338.727 709.191 337.203 707.902 335.445Z" fill="white"/>
<path d="M32.792 431V397.4H48.728V400.952H36.68V412.136H47.192V415.64H36.68V427.496H49.256V431H32.792ZM65.8464 431H61.6704L52.0224 406.04H56.1024L63.7824 426.728L71.4144 406.04H75.4464L65.8464 431ZM77.4133 418.616C77.4133 410.648 82.8853 405.416 89.5093 405.416C96.8533 405.416 101.365 410.696 101.365 418.184C101.365 418.328 101.365 418.856 101.317 419.336H81.3013C81.3493 424.904 85.0933 428.264 90.2773 428.264C94.5013 428.264 96.8533 426.056 98.0533 424.376L100.549 426.2C99.1573 428.552 95.8933 431.624 90.2293 431.624C82.6453 431.624 77.4133 426.296 77.4133 418.616ZM81.4933 416.504H97.4773C97.2373 411.32 93.6373 408.68 89.5093 408.68C85.4293 408.68 81.7812 411.8 81.4933 416.504ZM117.37 405.416C123.178 405.416 126.154 409.736 126.154 415.4V431H122.362V415.256C122.362 411.272 119.866 408.872 116.458 408.872C112.618 408.872 109.978 411.704 109.978 415.832V431H106.186V406.04H109.93V409.64C111.13 407.384 113.914 405.416 117.37 405.416ZM132.771 406.04V400.808H136.563V406.04H142.035V409.256H136.563V422.12C136.563 426.776 137.907 427.88 141.171 427.88C141.651 427.88 142.227 427.832 142.227 427.832V431.192C142.227 431.192 141.219 431.336 139.923 431.336C134.931 431.336 132.771 428.072 132.771 422.456V409.256H129.843V406.04H132.771ZM148.847 418.52C148.847 424.136 152.639 428.168 157.967 428.168C163.343 428.168 167.183 424.088 167.183 418.52C167.183 413 163.343 408.872 157.967 408.872C152.591 408.872 148.847 413.048 148.847 418.52ZM144.959 418.52C144.959 410.984 150.575 405.416 158.015 405.416C165.551 405.416 171.023 411.032 171.023 418.52C171.023 426.008 165.455 431.624 157.967 431.624C150.479 431.624 144.959 426.104 144.959 418.52ZM174.017 426.296L176.657 424.568C177.713 426.536 179.489 428.408 182.897 428.408C185.393 428.408 187.505 426.968 187.505 424.424C187.505 418.664 174.977 420.632 174.977 412.184C174.977 407.96 178.481 405.416 182.993 405.416C187.649 405.416 190.049 408.344 190.721 410.216L187.937 411.8C187.265 410.456 185.969 408.584 182.753 408.584C180.449 408.584 178.625 409.88 178.625 412.04C178.625 417.656 191.201 415.544 191.201 424.232C191.201 428.648 187.553 431.624 182.705 431.624C177.473 431.624 175.121 428.648 174.017 426.296ZM233.388 424.376L234.588 427.784C233.292 428.936 229.404 431.624 223.74 431.624C213.9 431.624 206.7 424.136 206.7 414.2C206.7 404.312 214.14 396.776 223.644 396.776C228.684 396.776 232.284 398.84 234.06 400.28L232.812 403.736C231.516 402.68 228.204 400.424 223.74 400.424C216.3 400.424 210.732 406.376 210.732 414.2C210.732 422.024 216.06 427.976 223.836 427.976C228.924 427.976 232.236 425.336 233.388 424.376ZM239.592 431V396.296H243.384V431H239.592ZM249.905 431V406.04H253.697V431H249.905ZM249.185 399.608C249.185 398.168 250.337 397.016 251.777 397.016C253.265 397.016 254.417 398.168 254.417 399.608C254.417 401.096 253.265 402.248 251.777 402.248C250.337 402.248 249.185 401.096 249.185 399.608ZM295.113 414.824V431H291.321V415.976C291.321 411.272 289.401 408.872 285.705 408.872C282.201 408.872 279.561 411.368 279.561 416.024V431H275.769V415.256C275.769 411.272 273.561 408.872 270.057 408.872C266.745 408.872 264.009 411.656 264.009 415.88V431H260.217V406.04H263.961C263.961 408.344 263.961 409.64 263.961 409.64C264.921 407.48 267.561 405.416 271.017 405.416C274.761 405.416 277.401 407.24 278.553 409.976C280.041 407 283.017 405.416 286.569 405.416C292.137 405.416 295.113 409.352 295.113 414.824ZM299.835 423.32C299.835 418.568 303.819 415.112 309.435 415.112C312.603 415.112 315.003 416.312 316.011 417.368V414.296C316.011 410.792 313.659 408.776 309.963 408.776C306.891 408.776 304.395 409.88 302.619 410.936L301.083 408.152C302.763 407.096 306.075 405.416 310.299 405.416C317.115 405.416 319.803 409.208 319.803 414.536V431H316.539L316.107 428.888C314.811 430.376 312.699 431.624 309.339 431.624C303.867 431.624 299.835 428.168 299.835 423.32ZM303.675 423.272C303.675 426.152 306.123 428.456 309.963 428.456C313.611 428.456 316.155 426.296 316.155 423.272C316.155 420.152 313.659 418.136 309.915 418.136C306.123 418.136 303.675 420.344 303.675 423.272ZM308.139 403.016L311.547 396.2H315.723L311.451 403.016H308.139ZM326.224 406.04V400.808H330.016V406.04H335.488V409.256H330.016V422.12C330.016 426.776 331.36 427.88 334.624 427.88C335.104 427.88 335.68 427.832 335.68 427.832V431.192C335.68 431.192 334.672 431.336 333.376 431.336C328.384 431.336 326.224 428.072 326.224 422.456V409.256H323.296V406.04H326.224ZM340.092 431V406.04H343.884V431H340.092ZM339.372 399.608C339.372 398.168 340.524 397.016 341.964 397.016C343.452 397.016 344.604 398.168 344.604 399.608C344.604 401.096 343.452 402.248 341.964 402.248C340.524 402.248 339.372 401.096 339.372 399.608ZM370.277 408.824L368.981 412.088C367.973 411.032 365.381 408.92 361.589 408.92C356.357 408.92 352.661 413.096 352.661 418.52C352.661 423.896 356.549 428.168 361.685 428.168C365.621 428.168 368.117 425.864 369.125 424.856L370.277 428.072C369.269 429.128 366.197 431.624 361.541 431.624C354.101 431.624 348.725 425.912 348.725 418.52C348.725 411.128 354.245 405.416 361.493 405.416C366.053 405.416 368.981 407.576 370.277 408.824ZM377.175 418.52C377.175 424.136 380.967 428.168 386.295 428.168C391.671 428.168 395.511 424.088 395.511 418.52C395.511 413 391.671 408.872 386.295 408.872C380.919 408.872 377.175 413.048 377.175 418.52ZM373.287 418.52C373.287 410.984 378.903 405.416 386.343 405.416C393.879 405.416 399.351 411.032 399.351 418.52C399.351 426.008 393.783 431.624 386.295 431.624C378.807 431.624 373.287 426.104 373.287 418.52ZM402.345 426.296L404.985 424.568C406.041 426.536 407.817 428.408 411.225 428.408C413.721 428.408 415.833 426.968 415.833 424.424C415.833 418.664 403.305 420.632 403.305 412.184C403.305 407.96 406.809 405.416 411.321 405.416C415.977 405.416 418.377 408.344 419.049 410.216L416.265 411.8C415.593 410.456 414.297 408.584 411.081 408.584C408.777 408.584 406.953 409.88 406.953 412.04C406.953 417.656 419.529 415.544 419.529 424.232C419.529 428.648 415.881 431.624 411.033 431.624C405.801 431.624 403.449 428.648 402.345 426.296ZM459.652 431.336L456.388 427.88C454.228 430.04 450.82 431.624 446.596 431.624C439.3 431.624 434.932 427.208 434.932 421.688C434.932 417.464 437.476 414.536 440.836 412.616C438.964 410.696 437.188 408.488 437.188 405.176C437.188 400.856 440.404 396.776 446.356 396.776C452.212 396.776 455.716 400.232 455.716 405.224C455.716 409.4 452.788 412.232 448.18 414.824L456.148 422.504C457.492 420.056 457.732 418.184 457.732 414.968H461.38C461.38 418.856 460.948 421.928 458.884 425.192L462.388 428.696L459.652 431.336ZM446.596 428.168C449.62 428.168 452.308 426.824 453.844 425.24L443.332 415.112C440.884 416.168 438.724 418.328 438.724 421.496C438.724 425.72 442.324 428.168 446.596 428.168ZM440.788 405.32C440.788 408.344 443.188 410.504 445.732 412.664C449.236 410.888 452.116 408.44 452.116 405.32C452.116 402.248 449.86 399.992 446.404 399.992C443.092 399.992 440.788 402.248 440.788 405.32ZM497.134 420.104H483.982L479.95 431H476.014L488.59 397.4H492.526L505.102 431H501.166L497.134 420.104ZM495.982 416.744L490.558 401.672L485.182 416.744H495.982ZM543.879 414.824V431H540.087V415.976C540.087 411.272 538.167 408.872 534.471 408.872C530.967 408.872 528.327 411.368 528.327 416.024V431H524.535V415.256C524.535 411.272 522.327 408.872 518.823 408.872C515.511 408.872 512.775 411.656 512.775 415.88V431H508.983V406.04H512.727C512.727 408.344 512.727 409.64 512.727 409.64C513.687 407.48 516.327 405.416 519.783 405.416C523.527 405.416 526.167 407.24 527.319 409.976C528.807 407 531.783 405.416 535.335 405.416C540.903 405.416 543.879 409.352 543.879 414.824ZM550.233 431V396.296H554.025V410.072C554.793 408.776 557.625 405.416 562.857 405.416C569.913 405.416 574.761 410.888 574.761 418.568C574.761 426.2 569.673 431.624 562.569 431.624C557.145 431.624 554.505 427.976 553.881 427.064V431H550.233ZM553.881 418.616C553.881 423.848 557.145 428.216 562.329 428.216C567.129 428.216 570.873 424.424 570.873 418.616C570.873 412.904 567.321 408.872 562.425 408.872C557.721 408.872 553.881 412.424 553.881 418.616ZM579.623 431V406.04H583.415V431H579.623ZM578.903 399.608C578.903 398.168 580.055 397.016 581.495 397.016C582.983 397.016 584.135 398.168 584.135 399.608C584.135 401.096 582.983 402.248 581.495 402.248C580.055 402.248 578.903 401.096 578.903 399.608ZM588.304 418.616C588.304 410.648 593.776 405.416 600.4 405.416C607.744 405.416 612.256 410.696 612.256 418.184C612.256 418.328 612.256 418.856 612.208 419.336H592.192C592.24 424.904 595.984 428.264 601.168 428.264C605.392 428.264 607.744 426.056 608.944 424.376L611.44 426.2C610.048 428.552 606.784 431.624 601.12 431.624C593.536 431.624 588.304 426.296 588.304 418.616ZM592.384 416.504H608.368C608.128 411.32 604.528 408.68 600.4 408.68C596.32 408.68 592.672 411.8 592.384 416.504ZM628.261 405.416C634.069 405.416 637.045 409.736 637.045 415.4V431H633.253V415.256C633.253 411.272 630.757 408.872 627.349 408.872C623.509 408.872 620.868 411.704 620.868 415.832V431H617.077V406.04H620.821V409.64C622.021 407.384 624.805 405.416 628.261 405.416ZM643.661 406.04V400.808H647.453V406.04H652.925V409.256H647.453V422.12C647.453 426.776 648.797 427.88 652.061 427.88C652.541 427.88 653.117 427.832 653.117 427.832V431.192C653.117 431.192 652.109 431.336 650.813 431.336C645.821 431.336 643.661 428.072 643.661 422.456V409.256H640.733V406.04H643.661ZM655.898 423.32C655.898 418.568 659.882 415.112 665.498 415.112C668.666 415.112 671.066 416.312 672.074 417.368V414.296C672.074 410.792 669.722 408.776 666.026 408.776C662.954 408.776 660.458 409.88 658.682 410.936L657.146 408.152C658.826 407.096 662.138 405.416 666.362 405.416C673.178 405.416 675.866 409.208 675.866 414.536V431H672.602L672.17 428.888C670.874 430.376 668.762 431.624 665.402 431.624C659.93 431.624 655.898 428.168 655.898 423.32ZM659.738 423.272C659.738 426.152 662.186 428.456 666.026 428.456C669.674 428.456 672.218 426.296 672.218 423.272C672.218 420.152 669.722 418.136 665.978 418.136C662.186 418.136 659.738 420.344 659.738 423.272ZM681.998 431V406.04H685.79V431H681.998ZM681.278 399.608C681.278 398.168 682.43 397.016 683.87 397.016C685.358 397.016 686.51 398.168 686.51 399.608C686.51 401.096 685.358 402.248 683.87 402.248C682.43 402.248 681.278 401.096 681.278 399.608ZM690.439 426.296L693.079 424.568C694.135 426.536 695.911 428.408 699.319 428.408C701.815 428.408 703.927 426.968 703.927 424.424C703.927 418.664 691.399 420.632 691.399 412.184C691.399 407.96 694.903 405.416 699.415 405.416C704.071 405.416 706.471 408.344 707.143 410.216L704.359 411.8C703.687 410.456 702.391 408.584 699.175 408.584C696.871 408.584 695.047 409.88 695.047 412.04C695.047 417.656 707.623 415.544 707.623 424.232C707.623 428.648 703.975 431.624 699.127 431.624C693.895 431.624 691.543 428.648 690.439 426.296Z" fill="#FDF86E"/>
<defs>
<linearGradient id="paint0_linear_14_2" x1="387.5" y1="651" x2="387.5" y2="0" gradientUnits="userSpaceOnUse">
<stop stop-color="#51A319"/>
<stop offset="1" stop-color="#148BD4"/>
</linearGradient>
</defs>
</svg>
