<svg width="33" height="32" viewBox="0 0 33 32" fill="none" xmlns="http://www.w3.org/2000/svg">
<path fill-rule="evenodd" clip-rule="evenodd" d="M14.0174 2.4199C14.6146 2.24074 15.2455 2.20368 15.8595 2.31167C16.4736 2.41966 17.054 2.66972 17.5542 3.04187C18.0545 3.41403 18.4608 3.89798 18.7408 4.45509C19.0208 5.0122 19.1666 5.62706 19.1667 6.25057V25.7492C19.1666 26.3727 19.0208 26.9876 18.7408 27.5447C18.4608 28.1018 18.0545 28.5858 17.5542 28.9579C17.054 29.3301 16.4736 29.5801 15.8595 29.6881C15.2455 29.7961 14.6146 29.7591 14.0174 29.5799L6.01741 27.1799C5.19355 26.9328 4.47129 26.4266 3.95779 25.7366C3.44429 25.0465 3.16689 24.2094 3.16675 23.3492V8.65056C3.16689 7.79043 3.44429 6.95325 3.95779 6.26321C4.47129 5.57318 5.19355 5.06704 6.01741 4.8199L14.0174 2.4199ZM20.5001 5.33323C20.5001 4.97961 20.6406 4.64047 20.8906 4.39042C21.1407 4.14037 21.4798 3.9999 21.8334 3.9999H25.8334C26.8943 3.9999 27.9117 4.42133 28.6618 5.17147C29.412 5.92162 29.8334 6.93903 29.8334 7.9999V9.33323C29.8334 9.68685 29.6929 10.026 29.4429 10.276C29.1928 10.5261 28.8537 10.6666 28.5001 10.6666C28.1465 10.6666 27.8073 10.5261 27.5573 10.276C27.3072 10.026 27.1667 9.68685 27.1667 9.33323V7.9999C27.1667 7.64628 27.0263 7.30714 26.7762 7.05709C26.5262 6.80704 26.187 6.66656 25.8334 6.66656H21.8334C21.4798 6.66656 21.1407 6.52609 20.8906 6.27604C20.6406 6.02599 20.5001 5.68685 20.5001 5.33323ZM28.5001 21.3332C28.8537 21.3332 29.1928 21.4737 29.4429 21.7238C29.6929 21.9738 29.8334 22.3129 29.8334 22.6666V23.9999C29.8334 25.0608 29.412 26.0782 28.6618 26.8283C27.9117 27.5785 26.8943 27.9999 25.8334 27.9999H21.8334C21.4798 27.9999 21.1407 27.8594 20.8906 27.6094C20.6406 27.3593 20.5001 27.0202 20.5001 26.6666C20.5001 26.3129 20.6406 25.9738 20.8906 25.7238C21.1407 25.4737 21.4798 25.3332 21.8334 25.3332H25.8334C26.187 25.3332 26.5262 25.1928 26.7762 24.9427C27.0263 24.6927 27.1667 24.3535 27.1667 23.9999V22.6666C27.1667 22.3129 27.3072 21.9738 27.5573 21.7238C27.8073 21.4737 28.1465 21.3332 28.5001 21.3332ZM12.5001 14.6666C12.1465 14.6666 11.8073 14.807 11.5573 15.0571C11.3072 15.3071 11.1667 15.6463 11.1667 15.9999C11.1667 16.3535 11.3072 16.6927 11.5573 16.9427C11.8073 17.1928 12.1465 17.3332 12.5001 17.3332H12.5014C12.855 17.3332 13.1942 17.1928 13.4442 16.9427C13.6943 16.6927 13.8347 16.3535 13.8347 15.9999C13.8347 15.6463 13.6943 15.3071 13.4442 15.0571C13.1942 14.807 12.855 14.6666 12.5014 14.6666H12.5001Z" fill="white"/>
<path d="M21.8335 15.9999H28.5002M28.5002 15.9999L25.8335 13.3333M28.5002 15.9999L25.8335 18.6666" stroke="white" stroke-width="1.66667" stroke-linecap="round" stroke-linejoin="round"/>
</svg>
